<svg id="Layer_1" data-name="Layer 1" xmlns="http://www.w3.org/2000/svg" xmlns:xlink="http://www.w3.org/1999/xlink" viewBox="0 0 686.19 592.15"><defs><linearGradient id="linear-gradient" x1="222.72" y1="572.89" x2="408.56" y2="572.89" gradientUnits="userSpaceOnUse"><stop offset="0" stop-color="#183866"/><stop offset="1" stop-color="#1a7fc1"/></linearGradient><linearGradient id="linear-gradient-2" x1="161.43" y1="173.05" x2="195.9" y2="610.69" gradientUnits="userSpaceOnUse"><stop offset="0" stop-opacity="0"/><stop offset="0.98"/></linearGradient><linearGradient id="linear-gradient-3" x1="349.2" y1="227.46" x2="239.88" y2="546.91" xlink:href="#linear-gradient-2"/><linearGradient id="linear-gradient-4" x1="541.48" y1="126.45" x2="700.76" y2="530.27" xlink:href="#linear-gradient-2"/><linearGradient id="linear-gradient-5" x1="554.44" y1="72.58" x2="580.42" y2="503.06" gradientUnits="userSpaceOnUse"><stop offset="0" stop-color="#68e1fd"/><stop offset="0.09" stop-color="#64d0ec"/><stop offset="0.52" stop-color="#50819c"/><stop offset="0.83" stop-color="#445069"/><stop offset="0.99" stop-color="#3f3d56"/></linearGradient><linearGradient id="linear-gradient-6" x1="552.9" y1="72.67" x2="578.88" y2="503.15" xlink:href="#linear-gradient-5"/><linearGradient id="linear-gradient-7" x1="551.36" y1="72.77" x2="577.34" y2="503.24" xlink:href="#linear-gradient-5"/><linearGradient id="linear-gradient-8" x1="90.22" y1="100.59" x2="116.2" y2="531.07" xlink:href="#linear-gradient-5"/><linearGradient id="linear-gradient-9" x1="88.68" y1="100.69" x2="114.66" y2="531.17" xlink:href="#linear-gradient-5"/><linearGradient id="linear-gradient-10" x1="87.14" y1="100.78" x2="113.12" y2="531.26" xlink:href="#linear-gradient-5"/><linearGradient id="linear-gradient-11" x1="336.61" y1="85.72" x2="362.58" y2="516.2" xlink:href="#linear-gradient-5"/><linearGradient id="linear-gradient-12" x1="335.07" y1="85.82" x2="361.04" y2="516.3" xlink:href="#linear-gradient-5"/><linearGradient id="linear-gradient-13" x1="333.53" y1="85.91" x2="359.5" y2="516.39" xlink:href="#linear-gradient-5"/><linearGradient id="linear-gradient-14" x1="321.52" y1="264.77" x2="91.44" y2="222.09" xlink:href="#linear-gradient-5"/><linearGradient id="linear-gradient-15" x1="360.25" y1="215.87" x2="383.9" y2="215.87" gradientUnits="userSpaceOnUse"><stop offset="0" stop-color="#ecc4d7"/><stop offset="0.42" stop-color="#efd4d1"/><stop offset="1" stop-color="#f2eac9"/></linearGradient><linearGradient id="linear-gradient-16" x1="286.95" y1="367.64" x2="286.64" y2="448.59" gradientTransform="translate(573.7 786.76) rotate(-180)" xlink:href="#linear-gradient-2"/><linearGradient id="linear-gradient-17" x1="7283.59" y1="271.73" x2="7309.1" y2="271.26" gradientTransform="matrix(1, 0, 0, -1, -7000.72, 543.28)" xlink:href="#linear-gradient-15"/><linearGradient id="linear-gradient-18" x1="7285.07" y1="267.59" x2="7279.81" y2="270.37" gradientTransform="matrix(-1, 0, 0, 1, 7576.04, 0)" xlink:href="#linear-gradient-15"/><linearGradient id="linear-gradient-19" x1="313.79" y1="210.73" x2="323.91" y2="210.73" xlink:href="#linear-gradient-15"/><linearGradient id="linear-gradient-20" x1="298.57" y1="276.56" x2="417.37" y2="388.76" xlink:href="#linear-gradient-2"/></defs><title>24. Stickies Note</title><path d="M261.57,23.58c25.33,6.47,48.89,20.71,75.16,20.62,25.43-.08,48.16-13.53,71.53-22.8C442.48,7.82,480,2.85,517.18,1.05c30.65-1.49,62.73-.63,90,12.49S654,51.26,665.07,77.92s14.31,55.52,15.56,84.05c1,24.14.75,48.56,6.55,72.12,8,32.53,27.17,61.58,42.53,91.77C742,350,752.08,375.59,754.55,402.21s-3.24,54.56-20.08,76.26c-25.2,32.46-70.58,45.92-113.59,49.39-24.11,1.94-49,1.5-71.56,9.56-15.21,5.42-28.57,14.45-43.11,21.26-29,13.59-62,18.09-94.45,19.66A578,578,0,0,1,170.07,538c-11.42-4.58-22.86-9.65-32.07-17.4-10.25-8.62-17.18-20.12-22.59-31.92a172.31,172.31,0,0,1-2.64-136.62c13.34-32.32,37-63.43,33.14-97.84-5.79-51.26-57-96.61-35.47-150.86C133.22,46.07,195,6.59,261.57,23.58Z" transform="translate(-68.9 -0.51)" fill="#68e1fd" opacity="0.18"/><path d="M234.47,570c-4.56,1.29-9.74,3.14-11.33,7.6-1.45,4.09,1,8.76,4.65,11.14s8.11,3,12.44,3.34c13,1.06,26,.48,39-.09l80.41-3.57c15.73-.69,32.41-1.7,45.32-10.72,2-1.39,4-3.45,3.57-5.82-.35-1.78-2-3-3.59-3.84-14-7.8-31.13-6.33-47.16-7.5-21.15-1.55-42.06-8.21-63.38-7.33C274.15,554,254,564.45,234.47,570Z" transform="translate(-68.9 -0.51)" opacity="0.19" fill="url(#linear-gradient)"/><path d="M68.9,116.44l4.1-1.81H261v134.1s0,21.45-15.56,30.14C239.08,282.44,68.9,116.44,68.9,116.44Z" transform="translate(-68.9 -0.51)" fill="#68e1fd"/><path d="M258.17,116.44V255.73a27.45,27.45,0,0,1-27.45,27.44H68.9V116.44Z" transform="translate(-68.9 -0.51)" fill="#68e1fd"/><path d="M258.17,116.44V255.73a27.45,27.45,0,0,1-27.45,27.44H68.9V116.44Z" transform="translate(-68.9 -0.51)" fill="url(#linear-gradient-2)" style="isolation:isolate"/><path d="M258.17,255.73a27.45,27.45,0,0,1-27.45,27.44h-4.33c9.59-3.09,8.35-20.1,8.35-20.1C252.68,266.16,258.17,255.73,258.17,255.73Z" transform="translate(-68.9 -0.51)" fill="#68e1fd"/><rect x="250.45" y="156.13" width="189.26" height="166.73" fill="#68e1fd"/><rect x="250.45" y="156.13" width="189.26" height="166.73" fill="url(#linear-gradient-3)" style="isolation:isolate"/><rect x="464.85" y="88.72" width="189.26" height="166.73" fill="#68e1fd"/><rect x="464.85" y="88.72" width="189.26" height="166.73" fill="url(#linear-gradient-4)" style="isolation:isolate"/><path d="M189.37,91.75l-26.81,61.48c0-.63,0-1.26-.06-1.88-1.5.56-2.52-1.13-3-2.67-.82-2.44-1.85-5.42-4.21-5.25-1.23.09-2.42,1.08-3.51,2a8.47,8.47,0,0,1-3.47,2.29,1.92,1.92,0,0,1-2.32-2.19l-2.51,1.65c-2.41,1.57-1.26-2.07-1.81-3.28a11,11,0,0,0-3.94,2.48L166,81.55Z" transform="translate(-68.9 -0.51)" fill="#68e1fd" opacity="0.34"/><path d="M382.45,169.78c.57-.25,1.13-.53,1.69-.83-1.13-1.14,0-2.75,1.19-3.86,1.89-1.74,4.18-3.9,3.06-6-.59-1.09-2-1.78-3.31-2.37a8.37,8.37,0,0,1-3.5-2.22,1.91,1.91,0,0,1,1-3c-.85-.53-1.69-1.07-2.53-1.61-2.43-1.55,1.37-2,2.24-3a10.81,10.81,0,0,0-3.87-2.59l65.56-.75a5.34,5.34,0,0,0-1,2.79c0,1.09,1.69,1.85,2.19,2.68a2.49,2.49,0,0,1,.16.33l.27,1.27a4.64,4.64,0,0,1-.84,2.4,12,12,0,0,0-1.84,3.28,6.3,6.3,0,0,0,.81,4.19c1,2,2.54,3.86,4.68,4.45a.79.79,0,0,0,.2,0l.84,4Z" transform="translate(-68.9 -0.51)" fill="#68e1fd" opacity="0.34"/><path d="M594.41,85.72c.63,0,1.26.07,1.89.07-.45-1.53,1.3-2.42,2.88-2.82,2.49-.63,5.54-1.44,5.55-3.8,0-1.24-.9-2.5-1.79-3.66a8.43,8.43,0,0,1-2-3.62,1.91,1.91,0,0,1,2.34-2.16l-1.46-2.63c-1.39-2.52,2.16-1.1,3.41-1.56a11.13,11.13,0,0,0-2.17-4.12L661,92a5.35,5.35,0,0,0-2.19,2c-.52.95.62,2.43.65,3.4a1.51,1.51,0,0,1,0,.37L659.12,99a4.86,4.86,0,0,1-1.89,1.72,11.54,11.54,0,0,0-3.18,2,6.29,6.29,0,0,0-1.29,4.07c-.07,2.22.39,4.61,2,6.15a.65.65,0,0,0,.16.13L653.73,117Z" transform="translate(-68.9 -0.51)" fill="#68e1fd" opacity="0.34"/><path d="M189.37,91.75l-26.81,61.48c0-.63,0-1.26-.06-1.88-1.5.56-2.52-1.13-3-2.67-.82-2.44-1.85-5.42-4.21-5.25-1.23.09-2.42,1.08-3.51,2a8.47,8.47,0,0,1-3.47,2.29,1.92,1.92,0,0,1-2.32-2.19l-2.51,1.65c-2.41,1.57-1.26-2.07-1.81-3.28a11,11,0,0,0-3.94,2.48L166,81.55Z" transform="translate(-68.9 -0.51)" fill="#fff" opacity="0.34"/><path d="M382.45,169.78c.57-.25,1.13-.53,1.69-.83-1.13-1.14,0-2.75,1.19-3.86,1.89-1.74,4.18-3.9,3.06-6-.59-1.09-2-1.78-3.31-2.37a8.37,8.37,0,0,1-3.5-2.22,1.91,1.91,0,0,1,1-3c-.85-.53-1.69-1.07-2.53-1.61-2.43-1.55,1.37-2,2.24-3a10.81,10.81,0,0,0-3.87-2.59l65.56-.75a5.34,5.34,0,0,0-1,2.79c0,1.09,1.69,1.85,2.19,2.68a2.49,2.49,0,0,1,.16.33l.27,1.27a4.64,4.64,0,0,1-.84,2.4,12,12,0,0,0-1.84,3.28,6.3,6.3,0,0,0,.81,4.19c1,2,2.54,3.86,4.68,4.45a.79.79,0,0,0,.2,0l.84,4Z" transform="translate(-68.9 -0.51)" fill="#fff" opacity="0.34"/><path d="M594.41,85.72c.63,0,1.26.07,1.89.07-.45-1.53,1.3-2.42,2.88-2.82,2.49-.63,5.54-1.44,5.55-3.8,0-1.24-.9-2.5-1.79-3.66a8.43,8.43,0,0,1-2-3.62,1.91,1.91,0,0,1,2.34-2.16l-1.46-2.63c-1.39-2.52,2.16-1.1,3.41-1.56a11.13,11.13,0,0,0-2.17-4.12L661,92a5.35,5.35,0,0,0-2.19,2c-.52.95.62,2.43.65,3.4a1.51,1.51,0,0,1,0,.37L659.12,99a4.86,4.86,0,0,1-1.89,1.72,11.54,11.54,0,0,0-3.18,2,6.29,6.29,0,0,0-1.29,4.07c-.07,2.22.39,4.61,2,6.15a.65.65,0,0,0,.16.13L653.73,117Z" transform="translate(-68.9 -0.51)" fill="#fff" opacity="0.34"/><rect x="495" y="154.43" width="128.96" height="3.41" fill="url(#linear-gradient-5)" style="isolation:isolate"/><rect x="495" y="180.02" width="128.96" height="3.41" fill="url(#linear-gradient-6)" style="isolation:isolate"/><rect x="495" y="205.62" width="128.96" height="3.41" fill="url(#linear-gradient-7)" style="isolation:isolate"/><rect x="47.28" y="171.99" width="94.7" height="3.41" fill="url(#linear-gradient-8)" style="isolation:isolate"/><rect x="47.28" y="197.59" width="94.7" height="3.41" fill="url(#linear-gradient-9)" style="isolation:isolate"/><rect x="47.28" y="223.19" width="94.7" height="3.41" fill="url(#linear-gradient-10)" style="isolation:isolate"/><rect x="296.21" y="199.3" width="94.7" height="3.41" fill="url(#linear-gradient-11)" style="isolation:isolate"/><rect x="296.21" y="224.9" width="94.7" height="3.41" fill="url(#linear-gradient-12)" style="isolation:isolate"/><rect x="296.21" y="250.49" width="94.7" height="3.41" fill="url(#linear-gradient-13)" style="isolation:isolate"/><path d="M258.17,296.55s34.06-59.35,46-78.13l7.66-9.28,7.51,12.77.17,10.28L288.09,291.4S265.63,311.9,258.17,296.55Z" transform="translate(-68.9 -0.51)" fill="#68e1fd"/><polygon points="250.95 210.16 213.5 286.25 240.29 252.2 250.64 231.68 250.95 210.16" fill="url(#linear-gradient-14)" style="isolation:isolate"/><path d="M363.83,206.12a10.25,10.25,0,0,1,1.93,6.79c4.56-3.74,4.63-11.6,9.82-14.41a25.56,25.56,0,0,1-1.57,8.83c1.65-3.4,3.68-7.15,7.31-8.23a24.09,24.09,0,0,1-4.13,10.77l4.73-4.78c.42-.43,1-.9,1.57-.61s.42,1.28.11,1.94l-5.22,11.16a28.48,28.48,0,0,1,5.35-3.4L378,223.62a16.67,16.67,0,0,1-2.38,3.31c-2.13,2.14-5.52,3.39-6.25,6.32.16-.63-8.24-3.31-8.83-4.22-1-1.57.84-4.87,1.05-6.75C362.19,217,360.75,210.9,363.83,206.12Z" transform="translate(-68.9 -0.51)" fill="url(#linear-gradient-15)"/><path d="M313.77,397.86l11.54,84.06a22.47,22.47,0,0,1-1.08,10.51l-12.81,59.18-19.86-2.14L300.65,489a8.56,8.56,0,0,0-.23-3.73l-15.66-54-2.95,61.16-25.67,52-18-7.2,22.81-46.7-3.67-57.76c-3.25-20.1,2.69-34.94,2.69-34.94Z" transform="translate(-68.9 -0.51)" fill="#3f3d56"/><rect x="259.93" y="388.9" width="53.84" height="8.95" transform="translate(504.8 786.25) rotate(180)" fill="#68e1fd"/><rect x="259.93" y="388.9" width="53.84" height="8.95" transform="translate(504.8 786.25) rotate(180)" fill="url(#linear-gradient-16)" style="isolation:isolate"/><path d="M372.94,235.11l-50.65,83.66-2.64,62.79c0,6-.24,11-4.7,12.37a9.2,9.2,0,0,1-2.67.35H267.43a12.81,12.81,0,0,1-12.82-12.81V323.79s-3.3-32.71,12.22-32.71h31.08a24.53,24.53,0,0,0,19.27-9.33l41.46-54.63Z" transform="translate(-68.9 -0.51)" fill="#68e1fd"/><rect x="279.89" y="251.89" width="15.54" height="39.51" transform="translate(506.41 542.77) rotate(180)" fill="url(#linear-gradient-17)"/><path d="M279.89,247.56V291.4h8.2v-2.67a5.92,5.92,0,0,1,5.92-5.92h.47a14.72,14.72,0,0,0,14.72-14.72V247.56Z" transform="translate(-68.9 -0.51)" fill="url(#linear-gradient-18)"/><path d="M315.28,209.22c.31-.65.54-1.33.88-2a14,14,0,0,1,2.6-3.21l3.24-3.3a1.61,1.61,0,0,1,.88-.56c.67-.08,1.14.74,1,1.4a4.11,4.11,0,0,1-1.05,1.68,15,15,0,0,0-3,7.41,63.77,63.77,0,0,0-.37,8.07,4.86,4.86,0,0,1-.52,2.56,73.23,73.23,0,0,0-3.38-6.53c-.43-.72-1.74-2.13-1.78-2.94S315,209.93,315.28,209.22Z" transform="translate(-68.9 -0.51)" fill="url(#linear-gradient-19)"/><path d="M310.61,240.66a11,11,0,0,0-5.07-7.4l0,2.2c-5.81-2.81-12.76-.6-19.13-1.65a9.17,9.17,0,0,1,1.76,2.64,26.86,26.86,0,0,0-12,2.83c.34.49.68,1,1,1.46a1.06,1.06,0,0,1,.23.52c0,.39-.37.65-.68.89-1.8,1.37-2,4-1.9,6.26.33,6.84,2.1,13.51,3.86,20.13.67,2.51,1.33,5,2,7.53l1.4-1.93,1.33.93c1.82-2.82,9.76-3.41,10.48-6.69-2-.46-4.39-3.17-4.17-5.22s.88-2.51,2.83-1.85c1.36.45-.87-2.33-1.11-3.46s-.75-2.28-.19-3.25c.77-1.35,2.78-1,4.22-.44a8.77,8.77,0,0,1,8.74-5.86c2,.15,3.93,1.36,5.25-.54S311,242.86,310.61,240.66Z" transform="translate(-68.9 -0.51)" fill="#3f3d56"/><path d="M372.94,235.11l-50.65,83.66-2.64,62.79c0,6,.11,11.82-6.18,12.72H305s7.12-71.8,5.81-78.76,58.6-82.28,58.6-82.28Z" transform="translate(-68.9 -0.51)" fill="url(#linear-gradient-20)" style="isolation:isolate"/><path d="M294.92,549.83l-3.47,15h45s.47-7.42-8.81-10a36.11,36.11,0,0,0-17.16-.47l-1.19-3Z" transform="translate(-68.9 -0.51)" fill="#3f3d56"/><path d="M241.77,538.72l-7.92,12,9.28,5.41,2.93-1.54,6.65,6.8,23.35.77s-1.54-11.68-12.37-11.71-9.87-6.9-9.87-6.9Z" transform="translate(-68.9 -0.51)" fill="#3f3d56"/></svg>